<svg xmlns="http://www.w3.org/2000/svg" viewBox="0 0 35.33 63.83"><title>Asset 13</title><g id="Layer_2" data-name="Layer 2"><g id="Layer_1-2" data-name="Layer 1"><path d="M0,15.08H8.47V.88q.88.33,1.65.55a10.84,10.84,0,0,0,2.64.22,9.43,9.43,0,0,0,2.86-.39A7.15,7.15,0,0,0,17.94,0V15.08H33.57v1.54H17.94v36a17.06,17.06,0,0,0,.61,5,7.54,7.54,0,0,0,1.6,3A4.77,4.77,0,0,0,22.29,62a8.2,8.2,0,0,0,2.26.33,7.74,7.74,0,0,0,6.22-2.81,13.59,13.59,0,0,0,3-6.44l1.54.55a25.59,25.59,0,0,1-1,3.19,11.13,11.13,0,0,1-2,3.36,10.71,10.71,0,0,1-3.58,2.64,12.82,12.82,0,0,1-5.5,1q-8.25,0-11.5-3.19t-3.25-9v-35H0Z"/></g></g></svg>