<svg xmlns="http://www.w3.org/2000/svg" viewBox="0 0 59.98 48.76"><title>Asset 9</title><g id="Layer_2" data-name="Layer 2"><g id="Layer_1-2" data-name="Layer 1"><path d="M60,47.22H42.26V36.1H42a40.37,40.37,0,0,1-2.37,4.46,18.05,18.05,0,0,1-3.41,4.07,17.28,17.28,0,0,1-4.73,3,16,16,0,0,1-6.33,1.16,21.52,21.52,0,0,1-7.15-1,18,18,0,0,1-4.29-2.09,21.09,21.09,0,0,1-1.71-1.38A8,8,0,0,1,10.35,42,15.66,15.66,0,0,1,9,38.36a23.8,23.8,0,0,1-.55-5.56V1.54H0V0H17.94V33.79a33.57,33.57,0,0,0,.39,5.28,11.58,11.58,0,0,0,1.49,4.24,8.2,8.2,0,0,0,2.86,2.86,9,9,0,0,0,4.62,1,10.33,10.33,0,0,0,5-1.43A16.31,16.31,0,0,0,37,41.71a23.33,23.33,0,0,0,3.58-6.33A22.85,22.85,0,0,0,42,27.08V1.54H33.68V0H51.51V45.67H60Z"/></g></g></svg>