<svg xmlns="http://www.w3.org/2000/svg" viewBox="0 0 43.36 80.34"><title>Asset 8</title><g id="Layer_2" data-name="Layer 2"><g id="Layer_1-2" data-name="Layer 1"><path d="M0,78.8H8.47V34.67H0V33.13H8.47V27.29a49.59,49.59,0,0,1,.39-6.66,31.51,31.51,0,0,1,1-5,19.79,19.79,0,0,1,1.54-3.74,18.48,18.48,0,0,1,2-2.92A27.88,27.88,0,0,1,20.58,2.7,16.88,16.88,0,0,1,29.72,0a16.59,16.59,0,0,1,6.22,1,13.66,13.66,0,0,1,4.24,2.59A9.91,9.91,0,0,1,42.59,7a8.49,8.49,0,0,1,.77,3.25,6.66,6.66,0,0,1-1.21,3.85,4.59,4.59,0,0,1-4.07,1.76,9.63,9.63,0,0,1-3.25-.66A2.72,2.72,0,0,1,33,12.33a5.68,5.68,0,0,1,1-3.36,5.69,5.69,0,0,0,1-3.36,3.18,3.18,0,0,0-2-3.25,10.5,10.5,0,0,0-4.07-.83,9.9,9.9,0,0,0-7.81,4q-3.3,4-3.3,12.33v15.3H31.59v1.54H17.94V78.8H28v1.54H0Z"/></g></g></svg>