<svg xmlns="http://www.w3.org/2000/svg" viewBox="0 0 44.13 50.19"><title>Asset 10</title><g id="Layer_2" data-name="Layer 2"><g id="Layer_1-2" data-name="Layer 1"><path d="M44.13,36.54A31.55,31.55,0,0,1,42.87,40a15.94,15.94,0,0,1-3,4.51,18,18,0,0,1-5.5,4,20.37,20.37,0,0,1-9,1.71,30.89,30.89,0,0,1-8.69-1.32,24.47,24.47,0,0,1-8.25-4.24A21.92,21.92,0,0,1,2.37,37,25.91,25.91,0,0,1,0,25.31a24.55,24.55,0,0,1,2-10,25.66,25.66,0,0,1,5.5-8,25.13,25.13,0,0,1,8.14-5.34A25.91,25.91,0,0,1,25.64,0a27.48,27.48,0,0,1,6.11.72,20.67,20.67,0,0,1,5.72,2.2,13.57,13.57,0,0,1,4.29,3.85,9.63,9.63,0,0,1,1.71,5.78A5.14,5.14,0,0,1,42,16.34a5.73,5.73,0,0,1-4.24,1.49A8.1,8.1,0,0,1,34.17,17a2.87,2.87,0,0,1-1.71-2.81,11.69,11.69,0,0,1,.77-3.74A11.55,11.55,0,0,0,34,6.82a4.28,4.28,0,0,0-2.53-3.91,12,12,0,0,0-5.83-1.38,22,22,0,0,0-5,.61,9.13,9.13,0,0,0-4.73,3,18.6,18.6,0,0,0-3.52,7.26A50.23,50.23,0,0,0,11,25.64a62.16,62.16,0,0,0,.61,8.92,23.41,23.41,0,0,0,2.2,7.32,12.53,12.53,0,0,0,4.4,5,13.27,13.27,0,0,0,7.32,1.82,19.29,19.29,0,0,0,8-1.43,14.66,14.66,0,0,0,5-3.47,15,15,0,0,0,2.7-4.13q.88-2.09,1.32-3.41Z"/></g></g></svg>